<svg xmlns="http://www.w3.org/2000/svg" viewBox="0 0 96 96" role="img" aria-label="NutriTrack">
  <rect width="96" height="96" fill="#2bc3b4"/>
  <rect x="12" y="8" width="72" height="80" rx="18" fill="#fbfffd"/>
  <path d="M27 70V28h14.4l25 31.4V28H76v42H61.7L36.6 38.5V70H27Z" fill="url(#g)"/>
  <path d="M27 70 43.6 53.4l7.4 9.1L43.5 70H27Z" fill="#21bfb1"/>
  <path d="M50.8 22.5c9.6-.9 16.5 3.4 19 11.2-8 3.2-15.9.3-19-11.2Z" fill="#3dd68b"/>
  <path d="M49.3 23.5c-2.3 9.2-8.4 13.4-17.2 12 1.2-7.8 7-12.4 17.2-12Z" fill="#26c1ab"/>
  <path d="M49.5 25 56 41" stroke="#fbfffd" stroke-width="2" stroke-linecap="round"/>
  <defs>
    <linearGradient id="g" x1="27" y1="28" x2="76" y2="70" gradientUnits="userSpaceOnUse">
      <stop stop-color="#20bbb8"/>
      <stop offset="1" stop-color="#43dc80"/>
    </linearGradient>
  </defs>
</svg>
